<?xml version="1.0" standalone="no"?><!DOCTYPE svg PUBLIC "-//W3C//DTD SVG 1.1//EN" "http://www.w3.org/Graphics/SVG/1.1/DTD/svg11.dtd"><svg t="1772593442203" class="icon" viewBox="0 0 1024 1024" version="1.1" xmlns="http://www.w3.org/2000/svg" p-id="22701" xmlns:xlink="http://www.w3.org/1999/xlink" width="256" height="256"><path d="M505.464471 28.702118C234.074353 32.346353 16.956235 255.337412 20.570353 526.787765c3.614118 271.269647 226.635294 488.448 497.995294 484.803764 271.390118-3.614118 488.508235-226.635294 484.894118-498.085647C999.905882 242.206118 776.854588 25.088 505.464471 28.702118z m54.482823 163.809882c49.935059 0 64.692706 28.943059 64.692706 62.102588 0 41.411765-33.189647 79.721412-89.750588 79.721412-47.314824 0-69.842824-23.823059-68.517647-63.156706 0.030118-33.129412 27.798588-78.667294 93.575529-78.667294z m-128.12047 634.849882c-34.153412 0-59.151059-20.751059-35.267765-111.856941l39.152941-161.551059c6.776471-25.901176 7.920941-36.291765 0-36.291764-10.209882 0-54.543059 17.889882-80.775529 35.538823l-17.046589-27.949176c83.094588-69.330824 178.597647-110.049882 219.52753-110.049883 34.123294 0 39.785412 40.387765 22.738823 102.520471l-44.875294 169.893647c-7.920941 30.027294-4.487529 40.387765 3.403294 40.387765 10.209882 0 43.821176-12.408471 76.8-38.369883l19.275294 25.901177c-80.624941 80.715294-168.719059 111.826824-202.932705 111.826823z m0 0" fill="#3DB8B4" p-id="22702"></path></svg>