<?xml version="1.0" standalone="no"?><!DOCTYPE svg PUBLIC "-//W3C//DTD SVG 1.1//EN" "http://www.w3.org/Graphics/SVG/1.1/DTD/svg11.dtd"><svg t="1772594118127" class="icon" viewBox="0 0 1024 1024" version="1.1" xmlns="http://www.w3.org/2000/svg" p-id="44586" xmlns:xlink="http://www.w3.org/1999/xlink" width="256" height="256"><path d="M453.352727 1.536a45.474909 45.474909 0 0 1 53.992728 46.778182 349.556364 349.556364 0 0 0 49.24509 176.872727 46.545455 46.545455 0 0 0 70.888728 8.750546 249.018182 249.018182 0 0 0 50.082909-88.436364 52.549818 52.549818 0 0 1 81.035636-28.16C889.530182 223.371636 1024 384.512 1024 601.181091c0 291.886545-229.236364 422.772364-512 422.772364S0 893.021091 0 601.134545C0 304.546909 251.904 112.034909 402.292364 23.458909A220.113455 220.113455 0 0 1 453.352727 1.536z" fill="#FF7B7B" p-id="44587"></path><path d="M525.824 563.898182a28.578909 28.578909 0 0 0-27.648 0c-34.164364 18.618182-119.947636 74.193455-119.947636 167.098182 0 80.104727 59.904 115.991273 133.771636 115.991272s133.771636-35.933091 133.771636-115.991272c0.046545-92.858182-85.736727-148.573091-119.947636-167.098182z" fill="#FFB0B0" p-id="44588"></path></svg>