<?xml version="1.0" standalone="no"?><!DOCTYPE svg PUBLIC "-//W3C//DTD SVG 1.1//EN" "http://www.w3.org/Graphics/SVG/1.1/DTD/svg11.dtd"><svg t="1772594384766" class="icon" viewBox="0 0 1024 1024" version="1.1" xmlns="http://www.w3.org/2000/svg" p-id="58805" xmlns:xlink="http://www.w3.org/1999/xlink" width="256" height="256"><path d="M576 134.4c115.2 25.6 198.4 128 211.2 249.6l12.8 217.6c0 25.6 12.8 51.2 32 76.8l51.2 64c19.2 25.6 19.2 64-6.4 83.2-12.8 0-25.6 6.4-44.8 6.4H192c-38.4 0-64-25.6-64-57.6 0-12.8 6.4-25.6 12.8-38.4l51.2-64c19.2-19.2 25.6-44.8 32-76.8L243.2 384C249.6 262.4 332.8 160 448 134.4V128c0-38.4 25.6-64 64-64s64 25.6 64 64v6.4zM390.4 864H640c-19.2 57.6-70.4 96-128 96s-108.8-38.4-121.6-96z m-12.8-601.6c-38.4 38.4-57.6 83.2-57.6 134.4V640h64V256l-6.4 6.4z" fill="#FBAD0A" p-id="58806"></path><path d="M377.6 262.4L384 256v384H320V396.8c0-51.2 19.2-96 57.6-134.4z" fill="#FED278" p-id="58807"></path></svg>