<?xml version="1.0" standalone="no"?><!DOCTYPE svg PUBLIC "-//W3C//DTD SVG 1.1//EN" "http://www.w3.org/Graphics/SVG/1.1/DTD/svg11.dtd"><svg t="1772593271001" class="icon" viewBox="0 0 1024 1024" version="1.1" xmlns="http://www.w3.org/2000/svg" p-id="18766" xmlns:xlink="http://www.w3.org/1999/xlink" width="256" height="256"><path d="M0 0h1024v1024H0V0z" fill="#202425" opacity=".01" p-id="18767"></path><path d="M102.4 273.066667a136.533333 136.533333 0 0 1 136.533333-136.533334h546.133334a136.533333 136.533333 0 0 1 136.533333 136.533334v580.266666a136.533333 136.533333 0 0 1-136.533333 136.533334H238.933333a136.533333 136.533333 0 0 1-136.533333-136.533334V273.066667z" fill="#FF7744" p-id="18768"></path><path d="M273.066667 136.533333a102.4 102.4 0 0 1 102.4-102.4h273.066666a102.4 102.4 0 1 1 0 204.8h-273.066666a102.4 102.4 0 0 1-102.4-102.4z" fill="#FFAA44" p-id="18769"></path><path d="M256 477.866667A51.2 51.2 0 0 1 307.2 426.666667h409.6a51.2 51.2 0 0 1 0 102.4H307.2A51.2 51.2 0 0 1 256 477.866667z m0 204.8A51.2 51.2 0 0 1 307.2 631.466667h204.8a51.2 51.2 0 0 1 0 102.4H307.2A51.2 51.2 0 0 1 256 682.666667z" fill="#FFFFFF" p-id="18770"></path></svg>