<?xml version="1.0" standalone="no"?><!DOCTYPE svg PUBLIC "-//W3C//DTD SVG 1.1//EN" "http://www.w3.org/Graphics/SVG/1.1/DTD/svg11.dtd"><svg t="1772588681824" class="icon" viewBox="0 0 1024 1024" version="1.1" xmlns="http://www.w3.org/2000/svg" p-id="1694" xmlns:xlink="http://www.w3.org/1999/xlink" width="200" height="200"><path d="M662.44846 804.234973a363.386854 363.386854 0 0 1-33.082907 152.023836 358.660725 358.660725 0 0 1-34.920847 60.914559 501.494864 501.494864 0 0 1-82.444705 6.826632A511.997374 511.997374 0 0 1 4.728756 579.218691a344.219773 344.219773 0 0 1 48.311547-52.512551A367.587859 367.587859 0 0 1 662.44846 803.447285z" fill="#00CC86" p-id="1695"></path><path d="M512.000001 1024a511.997374 511.997374 0 0 1 0-1023.994749 501.757427 501.757427 0 0 1 217.664524 48.57411 26.308788 26.308788 0 0 1-22.580397 47.523859A450.032564 450.032564 0 0 0 512.000001 52.517802a459.484823 459.484823 0 1 0 459.484823 459.484824 454.233568 454.233568 0 0 0-90.321588-274.115518 26.256276 26.256276 0 0 1 42.010041-31.50753 506.483556 506.483556 0 0 1 99.773847 305.623048A512.785063 512.785063 0 0 1 512.000001 1024z" fill="#492F5D" p-id="1696"></path><path d="M500.447239 680.830478a116.052738 116.052738 0 0 1-69.054004-210.050205l166.202224-123.404495a26.256276 26.256276 0 0 1 28.881903-1.575377 26.256276 26.256276 0 0 1 12.865575 26.256276L615.449727 577.643315a114.739924 114.739924 0 0 1-63.015062 90.059025 113.427111 113.427111 0 0 1-51.987426 13.128138z m78.768827-254.160748l-117.628114 87.170835a63.277624 63.277624 0 0 0-26.256276 54.613053 63.80275 63.80275 0 0 0 91.896965 52.512551 63.540187 63.540187 0 0 0 34.395721-49.361798z" fill="#492F5D" p-id="1697"></path></svg>