<?xml version="1.0" standalone="no"?><!DOCTYPE svg PUBLIC "-//W3C//DTD SVG 1.1//EN" "http://www.w3.org/Graphics/SVG/1.1/DTD/svg11.dtd"><svg t="1772589008838" class="icon" viewBox="0 0 1024 1024" version="1.1" xmlns="http://www.w3.org/2000/svg" p-id="6066" xmlns:xlink="http://www.w3.org/1999/xlink" width="256" height="256"><path d="M772.479076 1023.997806c-14.335969 0-30.573649-4.315419-45.567902-12.068546l-214.52754-111.396333-215.770967 111.176905a93.98837 93.98837 0 0 1-102.838636-8.045697 106.130058 106.130058 0 0 1-38.619346-101.375783l44.178191-237.713776L30.080667 500.661784a111.030619 111.030619 0 0 1-26.331372-104.594061L4.188151 394.970582c12.287974-38.253632 42.78848-65.097003 79.725544-70.216992l235.080639-44.397619L424.53925 57.782733C441.508357 22.601094 475.958569 0 512.383634 0c38.034204 0 73.435271 23.478807 88.210096 58.51416l105.179204 221.768668 235.080639 42.642194c37.302777 5.631988 68.022711 33.426214 78.335832 71.094705 11.629689 37.010206 2.194281 77.531262-24.502805 104.959775l-0.585141 0.585142-168.667068 164.936789 42.642195 238.225775a104.228348 104.228348 0 0 1-38.107347 100.498071c-16.237679 13.604542-36.57135 20.918812-57.41702 20.772527z" fill="#FF9D00" p-id="6067"></path></svg>